<?xml version="1.0" encoding="UTF-8" standalone="no"?>
<svg
   viewBox="0 0 36.994598 39.994202"
   x="0px"
   y="0px"
   version="1.1"
   id="svg4"
   sodipodi:docname="violin.svg"
   inkscape:version="1.4 (1:1.4+202410161351+e7c3feb100)"
   width="36.994598"
   height="39.994202"
   xmlns:inkscape="http://www.inkscape.org/namespaces/inkscape"
   xmlns:sodipodi="http://sodipodi.sourceforge.net/DTD/sodipodi-0.dtd"
   xmlns="http://www.w3.org/2000/svg"
   xmlns:svg="http://www.w3.org/2000/svg">
  <defs
     id="defs4" />
  <sodipodi:namedview
     id="namedview4"
     pagecolor="#ffffff"
     bordercolor="#000000"
     borderopacity="0.25"
     inkscape:showpageshadow="2"
     inkscape:pageopacity="0.0"
     inkscape:pagecheckerboard="0"
     inkscape:deskcolor="#d1d1d1"
     inkscape:zoom="5.757143"
     inkscape:cx="17.369727"
     inkscape:cy="35.781637"
     inkscape:window-width="1854"
     inkscape:window-height="1011"
     inkscape:window-x="0"
     inkscape:window-y="0"
     inkscape:window-maximized="1"
     inkscape:current-layer="svg4" />
  <g
     class="secondary"
     id="g2"
     transform="translate(-12.0029,-8.0029)">
    <path
       d="M 19.9971,24.5 A 6.3078,6.3078 0 0 0 18.5732,20.8389 7.1479,7.1479 0 0 1 16.9971,16.5 V 16.0029 H 16.0029 V 16.5 a 7.1479,7.1479 0 0 1 -1.5761,4.3389 6.3078,6.3078 0 0 0 -1.4239,3.6611 12.4967,12.4967 0 0 1 -0.4853,3.38 13.5076,13.5076 0 0 0 -0.5147,3.62 6.3078,6.3078 0 0 0 1.4239,3.6611 7.1479,7.1479 0 0 1 1.5761,4.3389 19.2486,19.2486 0 0 0 0.5664,4.7246 13.6883,13.6883 0 0 1 0.4336,3.2754 v 0.4971 h 0.9942 V 47.5 A 13.6883,13.6883 0 0 1 17.4307,44.2246 19.2486,19.2486 0 0 0 17.9971,39.5 7.1479,7.1479 0 0 1 19.5732,35.1611 6.3078,6.3078 0 0 0 20.9971,31.5 13.5076,13.5076 0 0 0 20.4824,27.88 12.4967,12.4967 0 0 1 19.9971,24.5 Z"
       id="path1" />
    <path
       d="M 34.6436,12.6963 C 32.8506,11.5537 30.9971,10.3711 30.9971,8.5 V 8.0029 H 30.0029 V 8.5 c 0,1.8711 -1.8535,3.0537 -3.6465,4.1963 -1.7246,1.1006 -3.3535,2.1387 -3.3535,3.8037 0,1.6152 1.2188,2.7031 2.3975,3.7549 1.2793,1.1426 2.6025,2.3242 2.6025,4.2451 a 18.1508,18.1508 0 0 1 -0.542,4.5068 14.5,14.5 0 0 0 -0.458,3.4932 6.038,6.038 0 0 0 1.6,3.7979 5.179,5.179 0 0 1 1.4,3.2021 v 0.4971 h 0.9942 V 39.5 a 5.179,5.179 0 0 1 1.4,-3.2021 6.038,6.038 0 0 0 1.6,-3.7979 14.5,14.5 0 0 0 -0.458,-3.4932 18.1508,18.1508 0 0 1 -0.542,-4.5068 c 0,-1.9209 1.3232,-3.1025 2.6025,-4.2451 1.1787,-1.0518 2.3975,-2.14 2.3975,-3.7549 0,-1.665 -1.6289,-2.7031 -3.3535,-3.8037 z"
       id="path3" />
    <path
       d="M 47.3975,35.7021 A 5.179,5.179 0 0 1 45.9975,32.5 14.5,14.5 0 0 0 45.5395,29.0068 18.1508,18.1508 0 0 1 44.9975,24.5 V 24.0029 H 44.0033 V 24.5 a 18.1508,18.1508 0 0 1 -0.542,4.5068 14.5,14.5 0 0 0 -0.458,3.4932 5.179,5.179 0 0 1 -1.4,3.2021 6.038,6.038 0 0 0 -1.6,3.7979 c 0,1.582 0.9717,2.667 1.9121,3.7158 1.0264,1.1455 2.0879,2.3311 2.0879,4.2842 v 0.4971 h 0.9942 V 47.5 c 0,-1.9531 1.0615,-3.1387 2.0879,-4.2842 0.94,-1.0488 1.9121,-2.1338 1.9121,-3.7158 a 6.038,6.038 0 0 0 -1.6,-3.7979 z"
       id="path2" />
  </g>
</svg>
